#Comment line ignore any data following # character 
#Hierarchical Translation and Rotation (.htr) file 
[Header]	
#Header keywords are followed by a single value 
FileType HTR		#Single word string
DataType HTRS		#Translation followed by rotation and scale data
FileVersion 1		#integer
NumSegments 84		#integer
NumFrames 2		#integer
DataFrameRate 30		#integer, data frame rate in this file
EulerRotationOrder ZYX
CalibrationUnits mm
RotationUnits Degrees
GlobalAxisofGravity Y
BoneLengthAxis Y
ScaleFactor 1.00
[SegmentNames&Hierarchy]
#CHILD	PARENT
MASTER GLOBAL
root MASTER
chest root
L_mid_tent01 root
R_mid_tent01 root
spine01 root
Bip01_Neck chest
L_humerus chest
R_humerus chest
weapon_bone chest
Bip01_Head Bip01_Neck
eye_left_bone Bip01_Head
eye_right_bone Bip01_Head
L_forearm L_humerus
L_front_hand L_forearm
L_weapon_bone L_forearm
L_front_hand01_01 L_front_hand
L_front_hand02_01 L_front_hand
L_front_hand03_01 L_front_hand
L_front_hand01_02 L_front_hand01_01
L_front_hand02_02 L_front_hand02_01
L_front_hand03_02 L_front_hand03_01
R_forearm R_humerus
R_front_hand R_forearm
R_weapon_bone R_forearm
R_front_hand01_01 R_front_hand
R_front_hand02_01 R_front_hand
R_front_hand03_01 R_front_hand
R_front_hand01_02 R_front_hand01_01
R_front_hand02_02 R_front_hand02_01
R_front_hand03_02 R_front_hand03_01
null_rope01_connect L_mid_tent01
Rope1_Seg01 null_rope01_connect
Rope1_Seg02 Rope1_Seg01
Rope1_Seg03 Rope1_Seg02
Rope1_Seg04 Rope1_Seg03
Rope1_Seg05 Rope1_Seg04
Rope1_Seg06 Rope1_Seg05
Rope1_Seg07 Rope1_Seg06
Rope1_Seg09 Rope1_Seg07
L_mid_hand01 Rope1_Seg09
L_mid_hand02 Rope1_Seg09
L_mid_hand03 Rope1_Seg09
null_rope02_connect R_mid_tent01
Rope2_Seg01 null_rope02_connect
Rope2_Seg02 Rope2_Seg01
Rope2_Seg03 Rope2_Seg02
Rope2_Seg04 Rope2_Seg03
Rope2_Seg05 Rope2_Seg04
Rope2_Seg06 Rope2_Seg05
Rope2_Seg07 Rope2_Seg06
Rope2_Seg09 Rope2_Seg07
R_mid_hand01 Rope2_Seg09
R_mid_hand02 Rope2_Seg09
R_mid_hand03 Rope2_Seg09
spine02 spine01
spine03 spine02
pelvis spine03
null_rope03_connect pelvis
null_rope04_connect pelvis
Rope3_Seg01 null_rope03_connect
Rope3_Seg02 Rope3_Seg01
Rope3_Seg03 Rope3_Seg02
Rope3_Seg04 Rope3_Seg03
Rope3_Seg05 Rope3_Seg04
Rope3_Seg06 Rope3_Seg05
Rope3_Seg07 Rope3_Seg06
Rope3_Seg08 Rope3_Seg07
Rope3_Seg09 Rope3_Seg08
R_rear_hand01 Rope3_Seg09
R_rear_hand02 Rope3_Seg09
R_rear_hand03 Rope3_Seg09
Rope4_Seg01 null_rope04_connect
Rope4_Seg02 Rope4_Seg01
Rope4_Seg03 Rope4_Seg02
Rope4_Seg04 Rope4_Seg03
Rope4_Seg05 Rope4_Seg04
Rope4_Seg06 Rope4_Seg05
Rope4_Seg07 Rope4_Seg06
Rope4_Seg08 Rope4_Seg07
Rope4_Seg09 Rope4_Seg08
L_rear_hand01 Rope4_Seg09
L_rear_hand02 Rope4_Seg09
L_rear_hand03 Rope4_Seg09
[BasePosition]
#SegmentName Tx, Ty, Tz, Rx, Ry, Rz, BoneLength
MASTER 0.000000 0.000000 0.000000 -90.000000 0.000000 0.000000 10.000000 
root 0.000000 0.000000 0.000000 0.000000 0.000000 0.000000 10.000000 
chest 0.000000 0.000000 0.000000 0.000000 0.000000 0.000000 10.000000 
L_mid_tent01 0.000000 0.000000 0.000000 0.000000 0.000000 0.000000 10.000000 
R_mid_tent01 0.000000 0.000000 0.000000 0.000000 0.000000 0.000000 10.000000 
spine01 0.000000 0.000000 0.000000 0.000000 0.000000 0.000000 10.000000 
Bip01_Neck 0.000000 0.000000 0.000000 0.000000 0.000000 0.000000 10.000000 
L_humerus 0.000000 0.000000 0.000000 0.000000 0.000000 0.000000 10.000000 
R_humerus 0.000000 0.000000 0.000000 0.000000 0.000000 0.000000 10.000000 
weapon_bone 0.000000 0.000000 0.000000 0.000000 0.000000 0.000000 10.000000 
Bip01_Head 0.000000 0.000000 0.000000 0.000000 0.000000 0.000000 10.000000 
eye_left_bone 0.000000 0.000000 0.000000 0.000000 0.000000 0.000000 10.000000 
eye_right_bone 0.000000 0.000000 0.000000 0.000000 0.000000 0.000000 10.000000 
L_forearm 0.000000 0.000000 0.000000 0.000000 0.000000 0.000000 10.000000 
L_front_hand 0.000000 0.000000 0.000000 0.000000 0.000000 0.000000 10.000000 
L_weapon_bone 0.000000 0.000000 0.000000 0.000000 0.000000 0.000000 10.000000 
L_front_hand01_01 0.000000 0.000000 0.000000 0.000000 0.000000 0.000000 10.000000 
L_front_hand02_01 0.000000 0.000000 0.000000 0.000000 0.000000 0.000000 10.000000 
L_front_hand03_01 0.000000 0.000000 0.000000 0.000000 0.000000 0.000000 10.000000 
L_front_hand01_02 0.000000 0.000000 0.000000 0.000000 0.000000 0.000000 10.000000 
L_front_hand02_02 0.000000 0.000000 0.000000 0.000000 0.000000 0.000000 10.000000 
L_front_hand03_02 0.000000 0.000000 0.000000 0.000000 0.000000 0.000000 10.000000 
R_forearm 0.000000 0.000000 0.000000 0.000000 0.000000 0.000000 10.000000 
R_front_hand 0.000000 0.000000 0.000000 0.000000 0.000000 0.000000 10.000000 
R_weapon_bone 0.000000 0.000000 0.000000 0.000000 0.000000 0.000000 10.000000 
R_front_hand01_01 0.000000 0.000000 0.000000 0.000000 0.000000 0.000000 10.000000 
R_front_hand02_01 0.000000 0.000000 0.000000 0.000000 0.000000 0.000000 10.000000 
R_front_hand03_01 0.000000 0.000000 0.000000 0.000000 0.000000 0.000000 10.000000 
R_front_hand01_02 0.000000 0.000000 0.000000 0.000000 0.000000 0.000000 10.000000 
R_front_hand02_02 0.000000 0.000000 0.000000 0.000000 0.000000 0.000000 10.000000 
R_front_hand03_02 0.000000 0.000000 0.000000 0.000000 0.000000 0.000000 10.000000 
null_rope01_connect 0.000000 0.000000 0.000000 0.000000 0.000000 0.000000 10.000000 
Rope1_Seg01 0.000000 0.000000 0.000000 0.000000 0.000000 0.000000 10.000000 
Rope1_Seg02 0.000000 0.000000 0.000000 0.000000 0.000000 0.000000 10.000000 
Rope1_Seg03 0.000000 0.000000 0.000000 0.000000 0.000000 0.000000 10.000000 
Rope1_Seg04 0.000000 0.000000 0.000000 0.000000 0.000000 0.000000 10.000000 
Rope1_Seg05 0.000000 0.000000 0.000000 0.000000 0.000000 0.000000 10.000000 
Rope1_Seg06 0.000000 0.000000 0.000000 0.000000 0.000000 0.000000 10.000000 
Rope1_Seg07 0.000000 0.000000 0.000000 0.000000 0.000000 0.000000 10.000000 
Rope1_Seg09 0.000000 0.000000 0.000000 0.000000 0.000000 0.000000 10.000000 
L_mid_hand01 0.000000 0.000000 0.000000 0.000000 0.000000 0.000000 10.000000 
L_mid_hand02 0.000000 0.000000 0.000000 0.000000 0.000000 0.000000 10.000000 
L_mid_hand03 0.000000 0.000000 0.000000 0.000000 0.000000 0.000000 10.000000 
null_rope02_connect 0.000000 0.000000 0.000000 0.000000 0.000000 0.000000 10.000000 
Rope2_Seg01 0.000000 0.000000 0.000000 0.000000 0.000000 0.000000 10.000000 
Rope2_Seg02 0.000000 0.000000 0.000000 0.000000 0.000000 0.000000 10.000000 
Rope2_Seg03 0.000000 0.000000 0.000000 0.000000 0.000000 0.000000 10.000000 
Rope2_Seg04 0.000000 0.000000 0.000000 0.000000 0.000000 0.000000 10.000000 
Rope2_Seg05 0.000000 0.000000 0.000000 0.000000 0.000000 0.000000 10.000000 
Rope2_Seg06 0.000000 0.000000 0.000000 0.000000 0.000000 0.000000 10.000000 
Rope2_Seg07 0.000000 0.000000 0.000000 0.000000 0.000000 0.000000 10.000000 
Rope2_Seg09 0.000000 0.000000 0.000000 0.000000 0.000000 0.000000 10.000000 
R_mid_hand01 0.000000 0.000000 0.000000 0.000000 0.000000 0.000000 10.000000 
R_mid_hand02 0.000000 0.000000 0.000000 0.000000 0.000000 0.000000 10.000000 
R_mid_hand03 0.000000 0.000000 0.000000 0.000000 0.000000 0.000000 10.000000 
spine02 0.000000 0.000000 0.000000 0.000000 0.000000 0.000000 10.000000 
spine03 0.000000 0.000000 0.000000 0.000000 0.000000 0.000000 10.000000 
pelvis 0.000000 0.000000 0.000000 0.000000 0.000000 0.000000 10.000000 
null_rope03_connect 0.000000 0.000000 0.000000 0.000000 0.000000 0.000000 10.000000 
null_rope04_connect 0.000000 0.000000 0.000000 0.000000 0.000000 0.000000 10.000000 
Rope3_Seg01 0.000000 0.000000 0.000000 0.000000 0.000000 0.000000 10.000000 
Rope3_Seg02 0.000000 0.000000 0.000000 0.000000 0.000000 0.000000 10.000000 
Rope3_Seg03 0.000000 0.000000 0.000000 0.000000 0.000000 0.000000 10.000000 
Rope3_Seg04 0.000000 0.000000 0.000000 0.000000 0.000000 0.000000 10.000000 
Rope3_Seg05 0.000000 0.000000 0.000000 0.000000 0.000000 0.000000 10.000000 
Rope3_Seg06 0.000000 0.000000 0.000000 0.000000 0.000000 0.000000 10.000000 
Rope3_Seg07 0.000000 0.000000 0.000000 0.000000 0.000000 0.000000 10.000000 
Rope3_Seg08 0.000000 0.000000 0.000000 0.000000 0.000000 0.000000 10.000000 
Rope3_Seg09 0.000000 0.000000 0.000000 0.000000 0.000000 0.000000 10.000000 
R_rear_hand01 0.000000 0.000000 0.000000 0.000000 0.000000 0.000000 10.000000 
R_rear_hand02 0.000000 0.000000 0.000000 0.000000 0.000000 0.000000 10.000000 
R_rear_hand03 0.000000 0.000000 0.000000 0.000000 0.000000 0.000000 10.000000 
Rope4_Seg01 0.000000 0.000000 0.000000 0.000000 0.000000 0.000000 10.000000 
Rope4_Seg02 0.000000 0.000000 0.000000 0.000000 0.000000 0.000000 10.000000 
Rope4_Seg03 0.000000 0.000000 0.000000 0.000000 0.000000 0.000000 10.000000 
Rope4_Seg04 0.000000 0.000000 0.000000 0.000000 0.000000 0.000000 10.000000 
Rope4_Seg05 0.000000 0.000000 0.000000 0.000000 0.000000 0.000000 10.000000 
Rope4_Seg06 0.000000 0.000000 0.000000 0.000000 0.000000 0.000000 10.000000 
Rope4_Seg07 0.000000 0.000000 0.000000 0.000000 0.000000 0.000000 10.000000 
Rope4_Seg08 0.000000 0.000000 0.000000 0.000000 0.000000 0.000000 10.000000 
Rope4_Seg09 0.000000 0.000000 0.000000 0.000000 0.000000 0.000000 10.000000 
L_rear_hand01 0.000000 0.000000 0.000000 0.000000 0.000000 0.000000 10.000000 
L_rear_hand02 0.000000 0.000000 0.000000 0.000000 0.000000 0.000000 10.000000 
L_rear_hand03 0.000000 0.000000 0.000000 0.000000 0.000000 0.000000 10.000000 
#Beginning of Data. Separated by tabs
#Fr	Tx	Ty	Tz	Rx	Ry	Rz	SF
[MASTER]
12 0.000000 0.000000 0.000000 0.001660 0.001660 0.001660 0.000000
13 0.000000 0.000000 0.000000 0.001660 0.001660 0.001660 0.000000
[root]
12 -18.465900 -75.502739 1444.435059 -91.629700 -27.676081 -90.148109 1446.525024
13 -22.459538 -72.309662 1447.764282 -91.629707 -27.676079 -90.148117 1449.742920
[chest]
12 -84.512650 -34.090519 0.000000 -1.888050 0.943089 -178.206696 91.129311
13 -84.512650 -34.090519 0.000000 -1.888050 0.943089 -178.206696 91.129311
[L_mid_tent01]
12 27.299547 22.177603 -249.918289 2.226686 24.813929 79.685188 252.381180
13 27.299551 22.177607 -249.918304 2.381984 26.084576 79.843590 252.381195
[R_mid_tent01]
12 23.228794 24.509907 226.238495 160.299652 -39.846592 86.414490 228.744751
13 23.228794 24.509907 226.238495 160.922028 -39.725571 85.367485 228.744751
[spine01]
12 -0.361383 -0.195265 0.000000 0.001845 0.001451 13.654368 0.410763
13 -0.361383 -0.195265 0.000000 0.001845 0.001451 13.654366 0.410763
[Bip01_Neck]
12 165.484543 71.581718 0.000119 176.643677 -1.657967 43.431911 180.302734
13 165.484543 71.581718 0.000119 176.643677 -1.657967 43.431911 180.302734
[L_humerus]
12 -13.983130 -135.272980 -120.471481 156.317398 70.210068 -112.010254 181.680161
13 -13.983130 -135.272980 -120.471481 156.317398 70.210068 -112.010254 181.680161
[R_humerus]
12 -13.983309 -135.273102 125.287651 -172.382263 -66.903831 -92.553993 184.909012
13 -13.983309 -135.273102 125.287651 -172.382263 -66.903831 -92.553993 184.909012
[weapon_bone]
12 235.964890 -300.705902 0.000000 0.000000 -89.951546 -128.212341 382.234833
13 235.964890 -300.705902 0.000000 0.000000 -89.951546 -128.212341 382.234833
[Bip01_Head]
12 213.597794 185.288620 17.287161 4.440999 -1.420068 -43.901424 283.292664
13 213.636230 185.181198 18.674213 4.438828 -1.308844 -43.901844 283.339447
[eye_left_bone]
12 -24.626970 125.451866 -64.772606 0.000000 -90.000000 -99.840431 143.318359
13 -24.626970 125.451866 -64.772606 0.000000 -90.000000 -99.840431 143.318359
[eye_right_bone]
12 -24.626970 125.451866 64.327362 0.000000 -89.965736 80.156380 143.117676
13 -24.626970 125.451866 64.327362 0.000000 -89.965736 80.156380 143.117676
[L_forearm]
12 322.776093 0.000000 -0.000119 0.000119 -0.002344 -95.807457 322.776093
13 322.776093 0.000000 -0.000119 0.000119 -0.002344 -95.807457 322.776093
[L_front_hand]
12 241.149185 -0.042021 -3.300071 -178.667953 -1.835447 -27.422350 241.171753
13 241.149185 -0.042021 -3.300071 -178.667953 -1.835447 -27.422344 241.171753
[L_weapon_bone]
12 156.183838 0.000000 0.000000 0.000014 0.000007 0.000001 156.183838
13 156.183838 0.000000 0.000000 0.000014 0.000007 0.000001 156.183838
[L_front_hand01_01]
12 86.095154 20.947098 -0.655860 -0.274633 -0.532782 65.272827 88.609184
13 86.095154 20.947098 -0.655860 -0.273295 -0.533469 64.985298 88.609184
[L_front_hand02_01]
12 86.935165 -11.437475 24.513514 141.090271 -54.445614 -45.572052 91.046425
13 86.935165 -11.437475 24.513514 140.772385 -54.262844 -45.183468 91.046425
[L_front_hand03_01]
12 86.637497 -14.123976 -20.424902 -141.476303 52.677540 -47.637543 90.126129
13 86.637497 -14.123976 -20.424902 -141.183044 52.494118 -47.265888 90.126129
[L_front_hand01_02]
12 71.020905 -0.000179 0.000030 0.000315 -0.002326 -105.419182 71.020905
13 71.020905 -0.000179 0.000030 0.000315 -0.002326 -105.414528 71.020905
[L_front_hand02_02]
12 71.020927 -0.000119 0.000060 0.000315 -0.002326 -105.419182 71.020927
13 71.020927 -0.000119 0.000060 0.000315 -0.002326 -105.414528 71.020927
[L_front_hand03_02]
12 71.020905 -0.000060 0.000060 0.000315 -0.002326 -105.419182 71.020905
13 71.020905 -0.000060 0.000060 0.000315 -0.002326 -105.414528 71.020905
[R_forearm]
12 322.776428 -0.000060 0.000030 0.209504 0.012586 -94.339050 322.776428
13 322.776428 -0.000060 0.000030 0.209504 0.012586 -94.339050 322.776428
[R_front_hand]
12 238.847015 -0.006795 2.210259 -2.635298 -10.645461 -26.312506 238.857239
13 238.847015 -0.006795 2.210259 -2.635298 -10.645460 -26.312500 238.857239
[R_weapon_bone]
12 155.664093 0.002503 -0.000030 0.003487 0.001180 -90.988930 155.664078
13 155.664093 0.002503 -0.000030 0.003487 0.001180 -90.988930 155.664078
[R_front_hand01_01]
12 87.624611 14.231146 22.918642 -140.500641 -54.097107 44.955364 91.683487
13 87.624611 14.231146 22.918642 -139.406311 -53.422413 43.599293 91.683487
[R_front_hand02_01]
12 89.356956 14.367283 -19.491137 141.255966 52.517570 47.591045 92.579636
13 89.356956 14.367283 -19.491137 140.210251 51.852013 46.267590 92.579636
[R_front_hand03_01]
12 87.286232 -22.307278 -0.143439 0.080269 -0.445286 -64.968231 90.091743
13 87.286232 -22.307278 -0.143439 0.071981 -0.448622 -63.915920 90.091743
[R_front_hand01_02]
12 71.020905 0.000060 0.000119 0.002323 -0.000334 106.381714 71.020905
13 71.020905 0.000060 0.000119 0.002323 -0.000334 106.381706 71.020905
[R_front_hand02_02]
12 71.020844 -0.000030 -0.000119 0.002323 -0.000334 106.381714 71.020836
13 71.020844 -0.000030 -0.000119 0.002323 -0.000334 106.381706 71.020836
[R_front_hand03_02]
12 71.020905 0.000000 0.000030 0.002323 -0.000334 106.381714 71.020905
13 71.020905 0.000000 0.000030 0.002323 -0.000334 106.381706 71.020905
[null_rope01_connect]
12 328.732483 0.000000 -0.000238 -137.374832 -63.421455 175.926254 328.732483
13 328.732483 0.000000 -0.000238 -137.385269 -62.143658 175.843735 328.732483
[Rope1_Seg01]
12 -0.000038 -0.000114 0.000102 120.134003 34.894489 154.642929 0.000158
13 -0.000038 -0.000114 0.000103 120.261040 36.889263 153.727692 0.000159
[Rope1_Seg02]
12 139.999863 -0.000179 0.000000 0.610504 -7.437288 3.218643 139.999863
13 139.999863 -0.000179 0.000000 0.492291 -7.267685 3.593614 139.999863
[Rope1_Seg03]
12 139.999924 0.000060 -0.000060 -0.434661 -13.812640 6.314666 139.999924
13 139.999924 0.000060 -0.000060 -0.544145 -13.313959 6.890872 139.999924
[Rope1_Seg04]
12 139.999924 -0.000060 -0.000119 -10.398382 -32.123924 14.485909 139.999924
13 139.999924 -0.000060 -0.000119 -9.411646 -29.815371 15.674338 139.999924
[Rope1_Seg05]
12 139.999832 0.000119 -0.000060 -15.278384 -22.478308 9.848594 139.999832
13 139.999832 0.000119 -0.000060 -13.751842 -21.463526 10.686335 139.999832
[Rope1_Seg06]
12 139.999954 0.000119 -0.000060 5.521317 1.300447 3.887832 139.999954
13 139.999954 0.000119 -0.000060 2.431210 -0.201430 2.574890 139.999954
[Rope1_Seg07]
12 139.999985 0.000060 0.000000 -0.295110 -1.848570 1.836646 139.999985
13 139.999985 0.000060 0.000000 -1.628868 -2.545040 1.462738 139.999985
[Rope1_Seg09]
12 121.602913 0.000119 -0.000089 -89.793175 -1.359789 0.847147 121.602913
13 121.602913 0.000119 -0.000089 -89.793175 -1.359789 0.847147 121.602913
[L_mid_hand01]
12 103.859421 1.038730 8.195221 111.216125 -46.770248 -16.325296 104.187431
13 103.859421 1.038730 8.195221 112.987701 -50.601227 -18.681456 104.187431
[L_mid_hand02]
12 105.572853 -4.139662 -10.864139 -150.384232 34.904903 -44.592545 106.211075
13 105.572853 -4.139662 -10.864139 -153.018723 36.866009 -49.082401 106.211075
[L_mid_hand03]
12 104.641464 17.579376 -3.913581 -12.781254 13.855400 50.452682 106.179977
13 104.641464 17.579376 -3.913581 -11.755013 14.733717 54.618225 106.179977
[null_rope02_connect]
12 328.732849 0.000179 -0.000119 -118.661232 47.778755 23.198795 328.732849
13 328.732849 0.000179 -0.000119 -118.373627 48.112091 22.697723 328.732849
[Rope2_Seg01]
12 -0.000062 0.000134 0.000153 -56.996517 32.903507 32.812889 0.000212
13 -0.000061 0.000134 0.000153 -56.493057 33.588146 34.370720 0.000212
[Rope2_Seg02]
12 139.999741 -0.000060 -0.000119 -0.776731 -4.016122 3.840203 139.999756
13 139.999741 -0.000060 -0.000119 -0.685259 -3.753035 3.587553 139.999756
[Rope2_Seg03]
12 140.000107 0.000030 0.000000 -1.061161 -7.001364 6.576187 140.000107
13 140.000107 0.000030 0.000000 -0.937649 -6.514378 6.126339 140.000107
[Rope2_Seg04]
12 139.999802 0.000000 -0.000060 -1.312653 -9.565053 15.318956 139.999802
13 139.999802 0.000000 -0.000060 -1.193133 -8.495007 14.661081 139.999802
[Rope2_Seg05]
12 139.999985 -0.000060 0.000119 -4.452626 -32.472294 19.285301 139.999985
13 139.999985 -0.000060 0.000119 -4.853832 -33.271130 19.525820 139.999985
[Rope2_Seg06]
12 139.999893 -0.000030 -0.000119 -4.429880 -12.137788 2.229924 139.999893
13 139.999893 -0.000030 -0.000119 -5.142432 -12.582839 1.824134 139.999893
[Rope2_Seg07]
12 139.999893 0.000060 -0.000060 -1.048940 -4.314988 1.347847 139.999893
13 139.999893 0.000060 -0.000060 -1.344258 -4.338432 1.166255 139.999893
[Rope2_Seg09]
12 121.338966 0.000089 -0.000060 33.793236 -1.359788 -0.847141 121.338966
13 121.338966 0.000089 -0.000060 33.793236 -1.359788 -0.847141 121.338966
[R_mid_hand01]
12 104.680779 11.144459 -10.335981 -36.922554 32.243565 38.107742 105.778534
13 104.680779 11.144459 -10.335981 -37.204079 31.906813 37.576260 105.778534
[R_mid_hand02]
12 104.070427 2.443552 8.231699 70.193451 -42.958271 14.324638 104.424065
13 104.070427 2.443552 8.231699 70.367462 -42.427391 14.067809 104.424065
[R_mid_hand03]
12 106.028137 -11.221827 -5.996406 -170.013962 12.325404 -47.779564 106.788818
13 106.028137 -11.221827 -5.996406 -169.893616 12.226661 -47.211018 106.788818
[spine02]
12 129.756927 0.001550 0.000119 -1.023899 -3.926965 6.770993 129.756927
13 129.756927 0.001550 0.000119 -1.023899 -3.926965 6.770993 129.756927
[spine03]
12 78.613846 0.087372 -4.898873 1.040681 4.146420 4.212376 78.766380
13 78.613846 0.087372 -4.898873 1.040680 4.146419 4.212375 78.766380
[pelvis]
12 169.435242 0.051022 0.000000 0.019518 -0.190233 -10.721436 169.435257
13 169.435242 0.051022 0.000000 0.019518 -0.190233 -10.721436 169.435257
[null_rope03_connect]
12 -1.257226 -2.466202 137.391083 -148.996323 -87.995132 -107.160522 137.418976
13 -1.257226 -2.466202 137.391083 -148.996323 -87.995132 -107.160522 137.418976
[null_rope04_connect]
12 -1.259640 -2.480268 -137.844437 -148.996323 -87.995132 -107.160522 137.872513
13 -1.259640 -2.480268 -137.844437 -148.996323 -87.995132 -107.160522 137.872513
[Rope3_Seg01]
12 0.000000 0.000000 0.000000 -145.992722 -43.034412 -60.807892 0.000000
13 0.000000 0.000000 0.000000 -145.619690 -43.846802 -61.856339 0.000000
[Rope3_Seg02]
12 139.999924 -0.000119 0.000060 -16.300060 7.180375 -27.461918 139.999924
13 139.999924 -0.000119 0.000060 -16.004215 6.865438 -27.893320 139.999924
[Rope3_Seg03]
12 139.999924 -0.000119 0.000119 -54.797203 24.825230 -43.810493 139.999924
13 139.999924 -0.000119 0.000119 -53.942822 23.186176 -43.290924 139.999924
[Rope3_Seg04]
12 139.999924 0.000119 0.000000 -23.075150 29.777426 -11.794044 139.999924
13 139.999924 0.000119 0.000000 -23.982021 29.321882 -11.819251 139.999924
[Rope3_Seg05]
12 139.999924 -0.000238 0.000060 -10.475642 30.484091 -4.563437 139.999924
13 139.999924 -0.000238 0.000060 -10.625141 31.079615 -3.398743 139.999924
[Rope3_Seg06]
12 139.999893 -0.000119 -0.000060 -0.755662 11.688300 0.615384 139.999893
13 139.999893 -0.000119 -0.000060 -0.708425 11.969848 1.101021 139.999893
[Rope3_Seg07]
12 139.999771 0.000060 -0.000119 0.360509 5.516859 0.459710 139.999771
13 139.999771 0.000060 -0.000119 0.395861 5.595269 0.669671 139.999771
[Rope3_Seg08]
12 139.999985 -0.000060 0.000000 0.559499 2.975703 0.238826 139.999985
13 139.999985 -0.000060 0.000000 0.579518 3.012269 0.338483 139.999985
[Rope3_Seg09]
12 90.185997 -0.000179 -0.000060 89.793228 -1.359877 -0.847183 90.185997
13 90.185997 -0.000179 -0.000060 89.793228 -1.359877 -0.847183 90.185997
[R_rear_hand01]
12 103.366196 -6.073594 -10.757982 -164.755127 19.627697 -40.352161 104.101845
13 103.366196 -6.073594 -10.757982 -165.129318 19.906286 -41.459824 104.101845
[R_rear_hand02]
12 100.509819 12.039542 -7.992327 -30.792652 24.782448 38.141541 101.543350
13 100.509819 12.039542 -7.992327 -30.361929 25.330688 39.162518 101.543350
[R_rear_hand03]
12 101.539970 5.215704 5.435467 82.448349 -41.048256 8.840378 101.819031
13 101.539970 5.215704 5.435467 82.326164 -42.112484 9.027008 101.819031
[Rope4_Seg01]
12 -0.000016 -0.000048 -0.000153 51.189823 -25.097345 -104.185188 0.000161
13 -0.000015 -0.000046 -0.000153 51.017956 -25.763895 -103.512375 0.000160
[Rope4_Seg02]
12 139.999985 0.000060 0.000119 14.866272 -52.373161 16.731565 139.999985
13 139.999985 0.000060 0.000119 15.207501 -53.488811 16.625345 139.999985
[Rope4_Seg03]
12 139.999924 0.000000 -0.000238 40.356583 -30.924631 26.247213 139.999924
13 139.999924 0.000000 -0.000238 40.048645 -29.823198 24.578592 139.999924
[Rope4_Seg04]
12 139.999985 0.000000 0.000119 18.171154 -2.676613 19.609755 139.999985
13 139.999985 0.000000 0.000119 18.633684 -2.760803 19.201452 139.999985
[Rope4_Seg05]
12 139.999802 -0.000060 -0.000119 17.230503 5.770055 35.476723 139.999802
13 139.999802 -0.000060 -0.000119 18.013943 6.127466 35.880070 139.999802
[Rope4_Seg06]
12 139.999924 0.000000 0.000060 3.581354 8.783010 19.060104 139.999924
13 139.999924 0.000000 0.000060 3.807090 9.426684 19.521467 139.999924
[Rope4_Seg07]
12 139.999802 0.000000 0.000000 0.126899 3.775434 7.250144 139.999802
13 139.999802 0.000000 0.000000 0.117433 3.984360 7.309996 139.999802
[Rope4_Seg08]
12 139.999924 0.000000 0.000119 -1.737451 1.931012 3.700570 139.999924
13 139.999924 0.000000 0.000119 -1.748988 2.023283 3.721295 139.999924
[Rope4_Seg09]
12 90.185791 0.000060 0.000060 -135.617828 2.228885 0.850567 90.185791
13 90.185791 0.000060 0.000060 -135.617828 2.228885 0.850567 90.185791
[L_rear_hand01]
12 101.696655 -8.392275 -7.654577 -26.077681 -29.734324 131.595932 102.329041
13 101.696655 -8.392275 -7.654577 -23.837065 -31.497852 127.196877 102.329041
[L_rear_hand02]
12 102.726799 -1.568258 5.773216 80.880577 51.310966 168.995010 102.900848
13 102.726799 -1.568258 5.773216 79.940979 55.428272 167.825531 102.900848
[L_rear_hand03]
12 104.552910 9.721220 -10.420293 -168.606277 -22.023735 -128.845840 105.519653
13 104.552910 9.721220 -10.420293 -170.300186 -22.788525 -124.407036 105.519653
